<?xml version="1.0" encoding="UTF-8"?> <svg xmlns="http://www.w3.org/2000/svg" viewBox="0 0 1219 405"><defs><style>.cls-1{fill:#fff9f9;}.cls-2{fill:#ff731a;}</style></defs><g id="Camada_2" data-name="Camada 2"><g id="Camada_1-2" data-name="Camada 1"><path class="cls-1" d="M784.93,256.58c-41.36,0-60.32-19.31-60.32-67.33,0-37.57,21.83-65.5,63.17-65.5a501.43,501.43,0,0,1,51.43,2.61V253.44c0,45.41-14.66,61.33-56,61.33-35.89,0-50-17-50-17s6-10.69,16.94-15.92c0,0,11.5,13.05,33,13.05,24.43,0,29.89-11.74,29.89-41,0,0-11.2,2.62-28.15,2.62m28.15-22.71V145.15a237.46,237.46,0,0,0-25.3-1.3c-26.11,0-35.88,21.4-35.88,45.4,0,31.58,6.9,47.23,33,47.23a172.53,172.53,0,0,0,28.15-2.61"></path><path class="cls-1" d="M1049.87,194.45c0,26.49,14.57,41.82,40.86,41.82,25.73,0,38.6-8.84,38.6-8.84,5.41,9.36,5.71,20.52,5.71,20.52s-14.57,9.09-44.31,9.09c-46.88,0-67.15-24.94-67.15-67.51,0-45.2,23.13-65.71,61.43-65.71,36,0,56.31,16.61,57.17,56.86l.3,13.77Zm.27-19h65.48c1.42-19.74-7.44-31.42-30.61-31.42-22.85,0-34.87,12.21-34.87,31.42"></path><polygon class="cls-1" points="590.57 234.96 507.39 234.96 507.39 166.92 579.16 166.92 579.16 144.85 507.39 144.85 507.39 83.82 590.57 83.82 590.57 61.74 479.09 61.74 479.09 257.03 590.57 257.03 590.57 234.96"></polygon><path class="cls-1" d="M630.33,146.06s13.33-1.3,23.49-1.3c27.56,0,31,10.79,31,34.25v78h26.4V181.65c0-40.59-9.87-58.27-57.45-58.27-30.45,0-49.91,4-49.91,4V257h26.42Z"></path><polygon class="cls-1" points="1181.26 126.67 1181.26 90.83 1155.81 96.03 1155.81 257.04 1181.26 257.04 1181.26 147.45 1219 147.45 1219 126.67 1181.26 126.67"></polygon><polygon class="cls-1" points="885.62 85.82 965.47 257.04 994.61 257.04 1010.23 257.04 1010.23 61.75 983.81 61.75 983.81 233.87 903.54 61.75 874.4 61.75 859.22 61.75 859.22 257.04 885.62 257.04 885.62 85.82"></polygon><path class="cls-2" d="M92,224.72c-11.13,18.17-13.56,25.33-13.62,28.14-.2,7.72,5.7,29.08,35,87,15.12,30,30.52,57.81,34.6,65.11,6.57-8.33,36.54-46.46,70-90.61l2.88-3.79,4,2.48c18,11,25.16,13.44,28,13.51,7.74.18,29.08-5.72,87-35,30-15.14,57.81-30.53,65.1-34.58-8.2-6.48-46.32-36.47-90.47-69.89l-3.77-2.86,2.45-4c10.94-18,13.32-25.22,13.37-28.12.22-8-5.69-29.68-34.93-87.41C276.55,35,261.1,7.22,257,0c-6.47,8.27-36.62,46.73-69.72,90.59l-2.85,3.76-4.05-2.45c-18.1-11-25.37-13.39-28.27-13.47-8-.22-29.68,5.7-87.4,34.94C34.91,128.46,7.21,143.92,0,148c8.19,6.43,46.22,36.22,90.71,69.83l3.82,2.87Zm82.79-117.55-3.34,4.5-3,4c-19.38,26-35.95,48.91-49.3,68.06l-3.77,5.41L111,184.2c-15-16.7-26.33-29.8-30.47-34.66l-2.93-3.39,2.88-3.41c9.41-11.09,42.31-47.16,71.18-46.43,4.46.11,10.5,2.66,18.45,7.82Zm133.85,44.51c-.09,4.43-2.62,10.41-7.67,18.27L298,174.66l-4.51-3.35-3.71-2.78c-26.09-19.47-49.06-36.12-68.23-49.47l-5.43-3.79,4.91-4.42c16.63-14.91,29.64-26.17,34.46-30.32l3.41-2.9,3.41,2.88c11.06,9.39,47.16,42.29,46.42,71.17M230,298.76l2.42-3.54c1.36-1.82,2.71-3.63,4.07-5.47,19.26-25.8,35.79-48.57,49.09-67.63l3.71-5.36,4.42,4.79c15.07,16.34,26,29.78,30.27,34.57l2.79,3.28-2,2.83c-11.8,12.83-40.28,46.46-71.44,47.17-4.84-.12-10.27-2.22-18.57-7.59Zm-32.2-25c-13.3-12.18-28.69-27.37-45.77-45.22-6.86-7.16-14.08-14.85-21.45-22.82l-3.24-3.53,3.23-3.55c12.31-13.49,27.75-29.18,46-46.6,6.61-6.34,13.78-13.08,21.28-20l3.52-3.25,3.53,3.19c13.53,12.16,29.37,27.52,47.15,45.66,6.42,6.58,13.24,13.66,20.23,21l3.33,3.51-3.26,3.6c-12,13.34-27.15,28.91-44.89,46.28-7.06,6.9-14.62,14.18-22.51,21.65L201.38,277Zm-102-20.45c.11-4.85,2.11-10.31,7.57-18.7l3-4.72,3.49,2.36c1.92,1.44,3.82,2.86,5.74,4.28,25.75,19.18,48.44,35.61,67.45,48.87l5.33,3.73-4.79,4.43c-16.45,15.2-29.93,26.2-34.71,30.44l-3.31,2.81-2.84-2c-12.51-10.86-45.23-39-47-71.48"></path></g></g></svg> 